<svg width="24" height="28" viewBox="0 0 24 28" fill="none" xmlns="http://www.w3.org/2000/svg">
<path fill-rule="evenodd" clip-rule="evenodd" d="M23.9997 19.9995V23.5993C23.9997 25.6392 22.4398 27.1991 20.3999 27.1991H3.60078C1.56089 27.1991 0.000976562 25.6392 0.000976562 23.5993V19.9995C0.000976562 19.2795 0.480951 18.7996 1.20091 18.7996C1.92087 18.7996 2.40085 19.2795 2.40085 19.9995V23.5993C2.40085 24.3193 2.88082 24.7992 3.60078 24.7992H20.3999C21.1198 24.7992 21.5998 24.3193 21.5998 23.5993V19.9995C21.5998 19.2795 22.0798 18.7996 22.7997 18.7996C23.5197 18.7996 23.9997 19.2795 23.9997 19.9995ZM11.1605 19.6395C11.2805 19.7595 11.4005 19.8795 11.5205 19.8795C11.6405 19.9995 11.8805 19.9995 12.0005 19.9995C12.1205 19.9995 12.3605 19.9995 12.4805 19.8795C12.6004 19.7595 12.7204 19.7595 12.8404 19.6395L17.6402 14.8398C18.1201 14.3598 18.1201 13.6398 17.6402 13.1599C17.1602 12.6799 16.4402 12.6799 15.9603 13.1599L13.2004 15.9197V2.00047C13.2004 1.28051 12.7204 0.800537 12.0005 0.800537C11.2805 0.800537 10.8005 1.28051 10.8005 2.00047V15.9197L8.04069 13.1599C7.56072 12.6799 6.84076 12.6799 6.36078 13.1599C5.88081 13.6398 5.88081 14.3598 6.36078 14.8398L11.1605 19.6395Z" fill="#252323"/>
</svg>
